<svg width="100" height="100" viewBox="0 0 100 100" fill="none" xmlns="http://www.w3.org/2000/svg">
<path d="M98.1137 45.5469L54.4643 1.88545C53.2559 0.678157 51.6177 0 49.9096 0C48.2015 0 46.5633 0.678157 45.3549 1.88545L36.2791 10.9548L47.779 22.455C53.8192 20.4148 59.5379 26.1984 57.4643 32.2052L68.549 43.2902C76.1896 40.6562 82.2052 50.2099 76.4664 55.9444C70.5535 61.8574 60.7946 55.3038 63.9665 47.6094L53.6205 37.2767V64.4758C59.2678 67.2749 58.5893 73.8175 55.6473 76.7528C54.2099 78.1893 52.2609 78.9963 50.2288 78.9963C48.1966 78.9963 46.2477 78.1893 44.8103 76.7528C40.8884 72.8241 42.3393 66.2816 47.3214 64.2526V36.7968C42.6786 34.8972 41.8304 29.935 43.1607 26.7519L31.8237 15.4013L1.88633 45.3438C0.678521 46.5519 0 48.1902 0 49.8985C0 51.6068 0.678521 53.2452 1.88633 54.4533L45.5491 98.1147C46.7571 99.3219 48.3949 100 50.1027 100C51.8104 100 53.4483 99.3219 54.6562 98.1147L98.1137 54.6564C99.3215 53.4483 100 51.81 100 50.1017C100 48.3933 99.3215 46.755 98.1137 45.5469V45.5469Z" fill="#753DED"/>
</svg>
