<svg width="100" height="100" viewBox="0 0 100 100" fill="none" xmlns="http://www.w3.org/2000/svg">
<path d="M98.1667 37.6106C96.448 30.7135 93.1892 25.5128 86.2474 25.5128H77.2968V36.0928C77.2968 44.3068 70.3327 51.2262 62.3866 51.2262H38.548C32.0304 51.2262 26.6288 56.8064 26.6288 63.3463V86.0688C26.6288 92.5418 32.2536 96.3363 38.548 98.1889C46.0924 100.399 53.3467 100.8 62.3866 98.1889C68.3908 96.4479 74.3058 92.9435 74.3058 86.0688V76.9843H50.4896V73.9487H86.2474C93.1892 73.9487 95.756 69.1051 98.1667 61.8509C100.667 54.3734 100.555 47.1862 98.1667 37.6106V37.6106ZM63.8821 83.0332C66.3597 83.0332 68.3685 85.0643 68.3685 87.5643C68.3685 90.0865 66.3597 92.1177 63.8821 92.1177C61.4268 92.1177 59.3956 90.0642 59.3956 87.5643C59.4179 85.042 61.4268 83.0332 63.8821 83.0332ZM37.4543 48.2353H61.2929C67.9221 48.2353 73.2121 42.7667 73.2121 36.1151V13.3704C73.2121 6.89738 67.7659 2.05379 61.2929 0.960077C53.302 -0.356842 44.6193 -0.28988 37.4543 0.982398C27.3654 2.76805 25.5351 6.4956 25.5351 13.3927V22.4772H49.3959V25.5128H16.5845C9.64272 25.5128 3.57148 29.6868 1.67422 37.6106C-0.513209 46.6951 -0.602492 52.3646 1.67422 61.8509C3.3706 68.9042 7.41065 73.9487 14.3524 73.9487H22.5441V63.0562C22.5441 55.177 29.3519 48.2353 37.4543 48.2353ZM35.9588 16.406C33.4812 16.406 31.4724 14.3748 31.4724 11.8749C31.4947 9.35265 33.4812 7.32147 35.9588 7.32147C38.4141 7.32147 40.4453 9.37497 40.4453 11.8749C40.4453 14.3748 38.4364 16.406 35.9588 16.406V16.406Z" fill="#753DED"/>
</svg>
