<svg width="100" height="100" viewBox="0 0 100 100" fill="none" xmlns="http://www.w3.org/2000/svg">
<path d="M47.1625 75.6013C47.0687 75.8263 47.1156 75.7263 47.1625 75.6013ZM86.0895 57.4778C82.9469 57.4764 79.8461 58.4386 77.0269 60.29C76.105 57.8111 75.1519 55.6446 74.9956 54.0197C74.8081 52.124 74.605 50.9991 74.8237 48.7493C75.0425 46.4995 76.0269 43.3123 76.0113 43.0831C75.9956 42.854 75.7925 41.7082 73.7769 41.6874C71.7612 41.6666 70.0268 42.2082 69.8253 42.9165C69.4693 44.2108 69.1923 45.5414 68.9971 46.8953C68.6377 49.3326 64.9674 58.0402 62.8892 62.5815C62.2017 60.8108 61.6236 59.2485 61.4986 57.9986C61.3111 56.1029 61.108 54.978 61.3267 52.7281C61.5455 50.4783 62.5299 47.2911 62.5142 47.0619C62.4986 46.8328 62.2955 45.6871 60.2814 45.6662C58.2673 45.6454 56.5314 46.187 56.3282 46.8953C56.1251 47.6036 55.9063 49.2701 55.5001 50.8741C55.0938 52.4782 50.2047 66.977 48.925 70.7475C48.2688 72.664 47.7062 74.2056 47.3 75.2472C47.2375 75.4138 47.1906 75.518 47.1594 75.6013C47.2062 75.4971 47.2375 75.393 47.2375 75.4346C46.8937 76.3304 46.6906 76.8304 46.6906 76.8304V76.8512C46.425 77.5178 46.1281 78.1219 45.9875 78.1219C45.8937 78.1219 45.6906 76.3721 46.0344 73.9764C46.7687 68.9352 48.5031 61.1025 48.4875 60.8317C48.4719 60.6858 48.8156 59.3318 47.3469 58.6027C45.925 57.9152 45.4093 59.061 45.2843 59.061C45.1593 59.061 45.0656 59.4776 45.0656 59.4776C45.0656 59.4776 46.6437 50.645 42.0359 50.645C39.1608 50.645 35.1608 54.853 33.1951 58.6652C31.9608 59.5609 29.2888 61.4983 26.4763 63.5606C25.3982 64.3522 24.2888 65.1646 23.2419 65.9354C23.1638 65.8313 23.1013 65.7271 23.0231 65.6229C17.4309 57.6652 7.10578 52.0407 7.54328 41.3541C7.69953 37.4586 8.71517 27.2302 27.3982 14.8146C42.7109 4.64874 54.9532 7.44018 57.061 13.648C60.0923 22.5014 50.5157 38.9793 34.6139 41.3541C28.5529 42.2498 25.3669 39.1251 24.57 37.9585C23.7419 36.7295 23.6169 36.667 23.3044 36.8961C22.7888 37.2711 23.1169 38.3543 23.3044 39.0001C23.7732 40.6458 25.7263 43.5622 29.0529 45.0204C31.9748 46.2912 39.0811 46.9995 47.6734 42.5623C57.3267 37.6044 64.8408 23.793 62.6377 12.2315C60.3939 0.48241 45.7812 -3.37144 31.9639 3.16969C23.731 7.06521 14.8277 13.1897 8.42298 21.1682C0.815078 30.6674 -0.402124 38.9376 0.0978819 42.3957C1.87759 54.6655 14.5621 62.6648 19.6387 68.581C19.3887 68.7685 19.1544 68.9352 18.9356 69.1018C16.3903 70.7892 6.71983 77.5386 4.29949 84.6631C1.56509 92.7457 4.75262 98.5369 6.84484 99.3285C13.3746 101.745 20.0606 97.3912 23.6528 90.2459C27.2451 83.1007 26.8091 73.7681 25.1529 69.5184C25.1372 69.456 25.106 69.4143 25.0904 69.3518C25.7466 68.831 26.4185 68.3102 27.0904 67.7894C28.3857 66.7687 29.6513 65.8312 30.7607 65.0188C30.1357 67.2686 29.6826 69.9767 29.4482 73.8931C29.167 78.4761 30.5889 84.4131 32.4326 86.7462C33.2451 87.767 34.228 87.7878 34.8373 87.7878C36.9936 87.7878 37.9624 85.413 39.039 82.5799C40.3671 79.1218 41.539 75.1013 41.539 75.1013C41.539 75.1013 40.0702 85.9754 44.0859 85.9754C45.5531 85.9754 47.0219 83.4548 47.6797 82.1633V82.1841C47.6797 82.1841 47.7109 82.1008 47.7891 81.9341C47.9453 81.6216 48.0234 81.4342 48.0234 81.4342V81.3717C48.6172 80.0176 49.9141 76.9137 51.8657 71.7891C54.3969 65.1646 56.8173 56.8945 56.8173 56.8945C57.0512 58.7125 57.3748 60.5079 57.786 62.269C58.2236 64.248 59.1454 66.4145 59.8798 68.5185C59.2861 69.6018 58.9267 70.2267 58.9267 70.2267C58.9278 70.2427 58.9334 70.2576 58.9423 70.2684C58.4736 71.1017 57.9423 71.9974 57.3954 72.8723C55.397 76.0388 53.0204 79.6635 52.7079 80.705C52.3329 81.9341 52.4266 82.8507 53.1454 83.559C53.6766 84.1006 54.6141 84.1839 55.597 84.0798C57.3939 83.9131 58.6595 83.3298 59.2689 82.9549C60.3923 82.4178 61.4541 81.6746 62.4236 80.7467C64.3768 78.8302 65.5643 76.0804 65.4549 72.4557C65.3924 70.4559 64.908 68.456 64.3142 66.5812C64.4861 66.2479 64.6736 65.8937 64.8455 65.5396C67.9377 59.5193 70.3284 52.9115 70.3284 52.9115C70.5623 54.7295 70.8859 56.5249 71.2971 58.286C71.6721 59.9734 72.405 61.8274 73.0769 63.6398C70.1721 66.7853 68.3752 70.4309 67.7502 72.8265C66.594 77.2637 67.5002 79.2635 69.2034 79.7218C69.969 79.9301 71.0628 79.451 71.8753 78.9927C73.082 78.4568 74.2197 77.677 75.2488 76.6804C77.2019 74.7639 79.091 72.0766 78.966 68.431C78.9191 66.7853 78.5754 65.1396 78.1222 63.5564C80.5754 62.1816 83.7614 61.4316 87.8239 62.0566C96.524 63.4106 98.2272 70.66 97.899 73.6806C97.5709 76.7012 95.7427 78.3886 95.1334 78.8885C94.524 79.3885 94.3365 79.576 94.3834 79.9509C94.4615 80.4926 94.7427 80.4717 95.2584 80.3467C95.9771 80.1801 99.8194 77.8886 99.9912 72.2849C100.241 65.2021 95.1334 57.4111 86.0848 57.4736L86.0895 57.4778ZM19.0294 87.6211C16.1559 91.8083 12.1246 93.3915 10.3918 92.0583C8.53236 90.6167 9.26674 84.4547 12.8121 79.9926C14.9684 77.2845 17.7481 74.7847 19.5919 73.2431C20.0137 72.9098 20.6231 72.4099 21.3731 71.8058C21.4981 71.7016 21.5606 71.6599 21.5606 71.6599C21.7013 71.535 21.8575 71.4308 22.0138 71.3058C23.3091 77.6386 22.0606 83.2215 19.0294 87.617V87.6211ZM40.0233 68.581C39.0233 71.8516 36.9155 80.1843 35.6342 79.7468C34.5405 79.3718 33.8686 73.0182 35.4155 66.7687C36.1967 63.6231 37.853 59.8734 38.8374 58.4152C40.414 56.0612 42.1484 55.3113 42.5546 56.2487C43.1015 57.4778 40.6484 66.5395 40.0233 68.581ZM57.3673 79.6218C56.9454 79.9134 56.5548 80.1009 56.3673 79.9551C56.2267 79.8509 56.5392 79.4551 56.5392 79.4551C56.5392 79.4551 58.7111 76.3512 59.5704 74.9347C60.0705 74.1014 60.6486 73.1223 61.272 72.0391C61.272 72.1432 61.2877 72.2474 61.2877 72.3724C61.2673 76.1013 58.5814 78.6219 57.3626 79.6218H57.3673ZM70.7393 75.5596C70.4268 75.268 70.4737 74.2889 71.5206 71.2475C71.9268 70.0601 72.8628 68.0602 74.4894 66.1437C74.6735 66.8692 74.7736 67.6279 74.7862 68.3935C74.7706 73.0807 72.255 74.8305 70.7409 75.5596H70.7393Z" fill="#753DED"/>
</svg>
